<svg preserveAspectRatio="none" width="100%" height="100%" overflow="visible" style="display: block;" viewBox="0 0 86.407 24" fill="none" xmlns="http://www.w3.org/2000/svg">
<g id="anirudh-sign 1" clip-path="url(#clip0_0_12)">
<path id="Vector" d="M9.59852 4.61049C9.49624 4.73037 9.48634 4.84584 9.30157 5.28467C9.1179 5.72349 9.03102 6.01494 8.67688 6.80459C8.32275 7.59425 8.08079 8.14525 7.53309 9.23296C6.98539 10.3207 6.62135 10.9838 5.93838 12.2442C5.2554 13.5046 4.81658 14.2382 4.1182 15.5337C3.42093 16.8304 3.0338 17.5618 2.4498 18.7243C1.86581 19.8878 1.59856 20.4916 1.19713 21.3506C0.795701 22.2095 0.601034 22.5571 0.442662 23.0201C0.284291 23.4842 0.312886 23.6701 0.405269 23.6701C0.497653 23.669 0.62523 23.5238 0.90348 23.0201C1.18173 22.5164 1.3566 22.0677 1.79762 21.1504C2.23864 20.2343 2.50699 19.6294 3.10858 18.4372C3.71127 17.245 4.07421 16.5213 4.80998 15.1906C5.54684 13.8587 5.98787 13.1263 6.79292 11.7812C7.59688 10.4372 8.0379 9.73007 8.83415 8.46749C9.63041 7.20602 10.0571 6.56154 10.7753 5.47053C11.4935 4.37953 11.8564 3.83623 12.4228 3.01248C12.9892 2.18872 13.2466 1.84118 13.6084 1.34957C13.9691 0.857961 14.1253 0.712787 14.2287 0.555515C14.3321 0.397143 14.2133 0.330056 14.1264 0.559915C14.0395 0.789774 13.9856 1.05263 13.7932 1.70261C13.6007 2.35369 13.4478 2.83871 13.1652 3.80983C12.8825 4.78206 12.6967 5.38145 12.3799 6.56044C12.0632 7.73943 11.8619 8.4235 11.5804 9.70587C11.2988 10.9882 11.1756 11.713 10.9722 12.9745C10.7687 14.2349 10.6664 14.8705 10.563 16.0077C10.4597 17.146 10.4432 17.6893 10.4564 18.6627C10.4696 19.6371 10.5246 20.1287 10.6301 20.8766C10.7368 21.6233 10.8094 21.9137 10.9876 22.3998C11.1657 22.8859 11.2493 23.1147 11.521 23.306C11.7926 23.4985 12.0599 23.526 12.3469 23.3599C12.6329 23.1928 12.7604 22.9442 12.9518 22.4724C13.1432 22.0017 13.2334 21.6497 13.306 21.0019C13.3785 20.3542 13.4049 19.9406 13.3148 19.2324C13.2246 18.523 13.1333 18.082 12.8539 17.4584C12.5735 16.8348 12.3876 16.5477 11.9158 16.1144C11.4429 15.6811 11.1228 15.5029 10.4905 15.294C9.85917 15.085 9.45334 15.0399 8.75607 15.0696C8.05879 15.0993 7.67056 15.1972 7.00408 15.4435C6.3376 15.6888 5.98347 15.9055 5.42257 16.2992C4.86277 16.6918 4.58012 16.9668 4.20289 17.4111C3.82565 17.8554 3.64419 18.104 3.53641 18.5219C3.42863 18.9398 3.46272 19.1994 3.66508 19.4996C3.86745 19.801 4.08301 19.9109 4.54823 20.0242C5.01454 20.1386 5.33238 20.1221 5.99556 20.0693C6.65765 20.0154 7.07117 19.9516 7.86193 19.757C8.65159 19.5623 9.09151 19.405 9.94825 19.096C10.8039 18.788 11.2735 18.5868 12.1424 18.2139C13.0112 17.8411 13.4709 17.6179 14.2914 17.2307C15.1107 16.8447 15.5331 16.6258 16.2424 16.2827C16.9518 15.9385 17.318 15.735 17.8393 15.5117C18.3595 15.2885 18.6136 15.2291 18.8479 15.1653C19.0821 15.1004 19.0403 15.0432 19.0095 15.1895C18.9787 15.3369 18.8798 15.5007 18.6917 15.9C18.5036 16.2992 18.3595 16.6478 18.0692 17.1856C17.7789 17.7223 17.5633 18.0479 17.2377 18.5879C16.9133 19.1279 16.6966 19.4402 16.4459 19.8856C16.194 20.3322 16.0379 20.5477 15.9807 20.8172C15.9246 21.0866 15.995 21.1966 16.1621 21.2307C16.3304 21.2659 16.4932 21.2241 16.8176 20.9898C17.1421 20.7556 17.3158 20.5092 17.7843 20.0583C18.2529 19.6074 18.5597 19.2742 19.1624 18.7364C19.764 18.1985 20.1434 17.8763 20.7956 17.3682C21.4467 16.8601 21.814 16.584 22.42 16.1947C23.0249 15.8054 23.3538 15.6195 23.8223 15.4226C24.2897 15.2258 24.5162 15.2192 24.7593 15.2115C25.0024 15.2027 25.0057 15.2104 25.0364 15.3831C25.0672 15.5557 25.0222 15.7031 24.9133 16.0748C24.8033 16.4466 24.6955 16.7402 24.4898 17.2406C24.2842 17.741 24.1214 18.0655 23.885 18.578C23.6474 19.0894 23.4659 19.3643 23.3065 19.801C23.147 20.2376 23.0414 20.441 23.0876 20.7611C23.1349 21.0811 23.2691 21.278 23.5385 21.4001C23.808 21.5222 24.0224 21.5068 24.4371 21.3726C24.8506 21.2373 25.0705 21.0547 25.6094 20.7259C26.1473 20.3971 26.4882 20.1705 27.1272 19.7273C27.7651 19.2841 28.1522 18.997 28.8022 18.5098C29.4533 18.0237 29.8074 17.7223 30.3782 17.2945C30.949 16.8667 31.2888 16.6511 31.6562 16.3718C32.0224 16.0924 32.1412 15.9791 32.2138 15.8989C32.2874 15.8186 32.1698 15.8142 32.0213 15.9693C31.8728 16.1243 31.7331 16.3102 31.4725 16.6731C31.2129 17.035 30.9919 17.3275 30.7202 17.7795C30.4486 18.2315 30.2847 18.5153 30.1164 18.9343C29.9482 19.3533 29.8393 19.559 29.8811 19.8768C29.9229 20.1936 30.0285 20.3927 30.3265 20.5224C30.6234 20.6522 30.8731 20.6291 31.3691 20.5257C31.8662 20.4234 32.1544 20.275 32.8077 20.0066C33.462 19.7372 33.8657 19.5568 34.641 19.1829C35.4164 18.8078 35.8772 18.5582 36.6845 18.1348C37.4906 17.7113 37.9404 17.4584 38.674 17.0669C39.4065 16.6742 39.7617 16.4455 40.349 16.1716C40.9363 15.8978 41.2662 15.8076 41.6094 15.6965C41.9536 15.5865 42.0119 15.5469 42.0669 15.6195C42.1219 15.691 42.0273 15.7669 41.8832 16.0572C41.7402 16.3476 41.6523 16.6148 41.3498 17.0713C41.0485 17.5277 40.7944 17.8455 40.3732 18.3382C39.952 18.832 39.6627 19.1213 39.2448 19.537C38.828 19.9516 38.5849 20.1441 38.2836 20.4135C37.9833 20.683 37.8546 20.793 37.7403 20.8843C37.6248 20.9745 37.6589 20.9723 37.7106 20.8656C37.7623 20.7578 37.8568 20.6533 37.9976 20.3465C38.1384 20.0407 38.2033 19.7801 38.4144 19.3346C38.6245 18.8903 38.7631 18.5791 39.049 18.1216C39.335 17.664 39.5362 17.4045 39.8442 17.046C40.151 16.6885 40.3512 16.5367 40.5888 16.3322C40.8263 16.1276 40.8945 16.0539 41.032 16.0231C41.1695 15.9934 41.1761 16.0495 41.275 16.1815C41.3751 16.3124 41.3784 16.4719 41.5302 16.6819C41.682 16.8931 41.7699 17.0559 42.0328 17.2351C42.2956 17.4144 42.4815 17.5167 42.8434 17.5772C43.2063 17.6377 43.4021 17.6146 43.8464 17.5354C44.2907 17.4573 44.5557 17.3715 45.0661 17.1856C45.5764 16.9987 45.8524 16.881 46.4001 16.6038C46.9489 16.3267 47.2514 16.1331 47.8057 15.801C48.36 15.4688 48.691 15.2588 49.1727 14.9431C49.6544 14.6286 49.9371 14.4493 50.2164 14.225C50.4969 13.9995 50.5783 13.8675 50.5717 13.8213C50.564 13.774 50.4034 13.7575 50.1812 13.9896C49.958 14.2228 49.7963 14.4955 49.4576 14.9816C49.1188 15.4677 48.8714 15.8362 48.4875 16.4213C48.1037 17.0064 47.8519 17.3572 47.5406 17.9071C47.2283 18.457 47.0611 18.7386 46.9302 19.1719C46.7993 19.6041 46.7773 19.8043 46.8873 20.0726C46.9973 20.341 47.1667 20.452 47.479 20.5125C47.7914 20.5741 47.9926 20.5312 48.449 20.3784C48.9044 20.2255 49.1881 20.0726 49.7589 19.7471C50.3297 19.4204 50.6563 19.1752 51.303 18.7463C51.9486 18.3173 52.3346 18.0622 52.9901 17.6014C53.6456 17.1416 54.0052 16.8524 54.5804 16.4444C55.1567 16.0363 55.4988 15.823 55.8705 15.5612C56.2411 15.2984 56.3588 15.2027 56.4358 15.1356C56.5128 15.0674 56.4006 15.0619 56.2554 15.2247C56.1114 15.3864 55.9618 15.5788 55.7143 15.9451C55.4658 16.3124 55.2931 16.6038 55.0182 17.0559C54.7432 17.5079 54.5463 17.7773 54.3374 18.2062C54.1295 18.6363 53.991 18.8529 53.9778 19.2016C53.9646 19.5502 54.0481 19.7416 54.2725 19.9483C54.4969 20.1562 54.6992 20.2376 55.0996 20.2365C55.501 20.2354 55.7407 20.1188 56.2752 19.9439C56.8108 19.7691 57.132 19.6404 57.7754 19.361C58.4199 19.0806 58.7905 18.8947 59.4944 18.5439C60.1993 18.193 60.6107 17.9555 61.298 17.6058C61.9854 17.2549 62.3396 17.0713 62.9323 16.793C63.5251 16.5148 63.799 16.3839 64.262 16.2134C64.725 16.044 64.9461 16.0154 65.2485 15.9429C65.551 15.8703 65.6467 15.8681 65.7731 15.8516C65.8996 15.8351 65.8831 15.8549 65.882 15.8615C65.8809 15.8681 65.8391 15.8747 65.7654 15.8846C65.6928 15.8934 65.6335 15.8714 65.5191 15.9077C65.4047 15.9429 65.342 15.9923 65.1924 16.0627C65.0418 16.1331 64.9725 16.1573 64.769 16.2596C64.5645 16.3619 64.4193 16.3894 64.1696 16.5741C63.92 16.7589 63.8111 16.903 63.5207 17.1845C63.2315 17.4672 63.0456 17.6442 62.7201 17.9852C62.3934 18.325 62.1768 18.5175 61.8897 18.8881C61.6027 19.2588 61.4487 19.4699 61.2859 19.8395C61.1243 20.209 61.0407 20.4224 61.0803 20.7358C61.1188 21.0503 61.2364 21.2263 61.4806 21.4089C61.7259 21.5914 61.926 21.6739 62.3022 21.6475C62.6783 21.6211 62.8949 21.5057 63.3635 21.2769C63.8309 21.0481 64.0915 20.8975 64.6436 20.5026C65.1946 20.1078 65.507 19.8615 66.1207 19.3028C66.7355 18.7441 67.0731 18.3921 67.7132 17.7091C68.3533 17.0251 68.6887 16.6346 69.3189 15.8857C69.9502 15.1367 70.2746 14.7166 70.8685 13.9654C71.4624 13.2131 71.777 12.8161 72.2862 12.1265C72.7954 11.4381 73.0219 11.1026 73.4157 10.5219C73.8094 9.94123 74.0271 9.64319 74.257 9.22526C74.4858 8.80734 74.5848 8.61377 74.5617 8.4334C74.5386 8.25413 74.356 8.17275 74.1404 8.32782C73.9249 8.48179 73.7951 8.71055 73.4839 9.20546C73.1726 9.69928 72.9691 10.0831 72.5853 10.8002C72.2004 11.5183 71.9507 11.9693 71.5614 12.793C71.1721 13.6168 70.9598 14.0776 70.6398 14.92C70.3197 15.7625 70.1503 16.2244 69.9612 17.0042C69.7709 17.7839 69.7126 18.1733 69.6884 18.8188C69.6653 19.4644 69.6829 19.7669 69.8424 20.2321C70.0019 20.6962 70.1317 20.9096 70.4858 21.1438C70.8399 21.3781 71.1171 21.4298 71.6131 21.4023C72.108 21.3759 72.3818 21.2747 72.9647 21.0085C73.5476 20.7424 73.8589 20.5378 74.5276 20.0737C75.1962 19.6096 75.5845 19.3126 76.307 18.6869C77.0307 18.0611 77.4047 17.6816 78.1426 16.9448C78.8806 16.2068 79.2721 15.7867 79.9969 14.9992C80.7217 14.2118 81.111 13.7949 81.7676 13.0086C82.4241 12.2211 82.7332 11.8065 83.2809 11.0663C83.8275 10.3262 84.0947 9.95003 84.5028 9.30664C84.9108 8.66326 85.0923 8.35312 85.3199 7.85051C85.5476 7.349 85.6499 7.13343 85.6411 6.79689C85.6334 6.45926 85.5223 6.29099 85.2781 6.16781C85.0351 6.04353 84.8272 6.02703 84.4225 6.17661C84.0189 6.32508 83.7835 6.51534 83.2578 6.91347C82.7332 7.3116 82.4164 7.57336 81.7962 8.16615C81.1748 8.76004 80.8129 9.12188 80.1541 9.88074C79.4943 10.6407 79.1203 11.1202 78.5001 11.9649C77.8809 12.8084 77.5707 13.2703 77.0538 14.1007C76.538 14.931 76.2949 15.3699 75.9188 16.1177C75.5416 16.8656 75.3777 17.2406 75.1721 17.8389C74.9675 18.4383 74.8652 18.7034 74.8927 19.1136C74.9191 19.5227 75.0324 19.7141 75.3073 19.8878C75.5812 20.0616 75.8044 20.0429 76.2652 19.9813C76.7261 19.9197 77.0098 19.8131 77.6092 19.5799C78.2086 19.3478 78.6089 19.1466 79.2611 18.8188C79.9133 18.4911 80.2927 18.2392 80.8701 17.9434C81.4475 17.6475 81.7456 17.5024 82.1492 17.3374C82.5539 17.1724 82.7013 17.1416 82.8916 17.1185C83.0807 17.0954 83.0895 17.0877 83.0972 17.2219C83.106 17.3561 83.0103 17.4859 82.9323 17.7905C82.8542 18.0963 82.7926 18.3382 82.7068 18.7473C82.6221 19.1565 82.5451 19.3929 82.5066 19.8373C82.4692 20.2816 82.4263 20.562 82.5176 20.9701C82.6078 21.377 82.6826 21.5859 82.9619 21.8752C83.2402 22.1655 83.4998 22.2524 83.9133 22.4185C84.3257 22.5846 84.6216 22.6604 85.0263 22.7077C85.431 22.7561 85.75 22.7231 85.9358 22.656C86.1217 22.589 86.1195 22.4636 85.9556 22.3723C85.7906 22.2821 85.4849 22.2865 85.1132 22.2018C84.7403 22.1171 84.4566 22.082 84.0948 21.9489C83.734 21.8158 83.525 21.7509 83.3062 21.5353C83.0873 21.3209 83.0565 21.2021 83.0015 20.8733C82.9465 20.5455 82.9762 20.2937 83.0301 19.8944C83.084 19.4952 83.172 19.2786 83.2732 18.8771C83.3733 18.4768 83.5041 18.2458 83.5349 17.8906C83.5657 17.5343 83.5558 17.3242 83.4272 17.0976C83.2985 16.87 83.1764 16.7787 82.8916 16.7545C82.6067 16.7303 82.4384 16.7996 82.0029 16.9778C81.5674 17.1548 81.2914 17.3352 80.7129 17.6432C80.1344 17.95 79.7571 18.1974 79.1104 18.5142C78.4627 18.8309 78.0579 19.0157 77.4761 19.2269C76.8943 19.4391 76.6007 19.5018 76.2026 19.5722C75.8044 19.6426 75.678 19.6723 75.4866 19.5777C75.2952 19.482 75.2556 19.427 75.2468 19.096C75.238 18.766 75.2666 18.5021 75.4426 17.9269C75.6186 17.3517 75.7681 16.9635 76.1267 16.2211C76.4841 15.4776 76.7239 15.0377 77.2331 14.2118C77.7412 13.3847 78.0502 12.925 78.6683 12.0891C79.2875 11.2533 79.6625 10.776 80.3246 10.0314C80.9878 9.28795 81.354 8.93381 81.9831 8.36851C82.6122 7.80321 82.9476 7.56126 83.469 7.20602C83.9903 6.85078 84.2531 6.74081 84.5908 6.59123C84.9273 6.44056 85.0219 6.41526 85.155 6.45376C85.2869 6.49225 85.2759 6.53074 85.2506 6.7848C85.2253 7.03995 85.2209 7.24781 85.0296 7.72623C84.8371 8.20464 84.6754 8.53348 84.2905 9.17687C83.9067 9.81915 83.6438 10.1997 83.1082 10.9399C82.5737 11.6811 82.2669 12.0957 81.6158 12.881C80.9636 13.6663 80.5765 14.0831 79.8528 14.8661C79.1291 15.6492 78.7365 16.0682 77.9963 16.7974C77.2573 17.5255 76.8811 17.8994 76.1564 18.5098C75.4316 19.1191 75.0379 19.4061 74.3725 19.845C73.7071 20.2838 73.386 20.4685 72.8306 20.7039C72.2741 20.9404 72.02 21.0019 71.5911 21.0261C71.1633 21.0514 70.9774 21.0085 70.6903 20.8282C70.4033 20.6467 70.301 20.5213 70.1569 20.1221C70.014 19.7218 69.9645 19.438 69.9733 18.8265C69.9832 18.2139 70.025 17.8268 70.2031 17.0625C70.3813 16.2981 70.5452 15.8362 70.863 15.0047C71.1809 14.1733 71.392 13.7136 71.7924 12.9052C72.1938 12.0957 72.461 11.6558 72.8669 10.9586C73.2738 10.2624 73.5157 9.89944 73.8237 9.42103C74.1316 8.94261 74.2999 8.77324 74.4077 8.56648C74.5155 8.35862 74.4572 8.28713 74.3637 8.38281C74.2702 8.47959 74.1767 8.64786 73.9425 9.04599C73.7071 9.44412 73.5564 9.78506 73.188 10.3735C72.8196 10.9629 72.5974 11.2995 72.1003 11.9913C71.6021 12.683 71.2875 13.0801 70.698 13.8312C70.1097 14.5824 69.7841 15.0025 69.1528 15.7449C68.5215 16.4884 68.185 16.8766 67.5427 17.5475C66.8993 18.2172 66.5584 18.5637 65.9403 19.0982C65.3222 19.6338 65.0044 19.8681 64.4534 20.2244C63.9024 20.5796 63.6252 20.7017 63.1853 20.8788C62.7454 21.0558 62.5452 21.0778 62.2549 21.1097C61.9645 21.1416 61.8743 21.1207 61.7336 21.0393C61.5928 20.9591 61.5466 20.9019 61.5521 20.705C61.5565 20.507 61.6126 20.3575 61.7578 20.0539C61.9018 19.7515 62.0129 19.5304 62.2769 19.1884C62.5419 18.8452 62.7531 18.6572 63.0797 18.3437C63.4053 18.0292 63.6109 17.8609 63.909 17.619C64.2059 17.3759 64.3357 17.2868 64.5655 17.1317C64.7954 16.9756 64.879 16.9294 65.0583 16.8403C65.2375 16.7512 65.3002 16.7501 65.4619 16.6863C65.6236 16.6214 65.7346 16.6225 65.8677 16.5169C65.9997 16.4114 66.0767 16.308 66.1262 16.1573C66.1746 16.0066 66.1735 15.8956 66.1119 15.7625C66.0503 15.6294 66.0129 15.5491 65.8182 15.4919C65.6236 15.4358 65.4773 15.4018 65.1396 15.4809C64.802 15.559 64.5963 15.6778 64.1289 15.8868C63.6615 16.0946 63.3943 16.2299 62.8026 16.5235C62.2109 16.8183 61.8578 17.0042 61.1705 17.3561C60.4831 17.708 60.0718 17.9445 59.3668 18.2832C58.6629 18.6231 58.2901 18.799 57.6478 19.052C57.0055 19.305 56.669 19.4083 56.1565 19.5469C55.644 19.6866 55.4097 19.7251 55.0853 19.746C54.7597 19.768 54.6541 19.7537 54.5299 19.6547C54.4056 19.5557 54.4144 19.4974 54.4628 19.2511C54.5101 19.0047 54.5694 18.8067 54.7685 18.4218C54.9665 18.038 55.1743 17.7663 55.4548 17.3286C55.7352 16.892 55.9409 16.6236 56.1708 16.2343C56.4006 15.845 56.5579 15.6415 56.6052 15.3831C56.6525 15.1246 56.5953 14.9684 56.4061 14.9409C56.218 14.9145 56.063 14.997 55.6627 15.2489C55.2623 15.5007 54.9698 15.7746 54.4023 16.2002C53.8359 16.6247 53.4817 16.914 52.8296 17.3726C52.1763 17.8312 51.7869 18.0809 51.1381 18.4911C50.4881 18.9013 50.1493 19.1312 49.584 19.4226C49.0176 19.7141 48.7185 19.8164 48.3072 19.9483C47.8958 20.0814 47.7463 20.0836 47.5274 20.0858C47.3074 20.088 47.2514 20.1155 47.2085 19.9571C47.1656 19.7988 47.1821 19.669 47.3108 19.294C47.4394 18.9189 47.5549 18.6165 47.853 18.0842C48.1521 17.5519 48.4117 17.2021 48.8032 16.6324C49.1947 16.0638 49.4576 15.7097 49.8106 15.2357C50.1625 14.7628 50.4089 14.567 50.5673 14.2657C50.7256 13.9654 50.7212 13.8158 50.6003 13.7322C50.4804 13.6476 50.2945 13.6685 49.9668 13.8477C49.6379 14.027 49.4257 14.2965 48.9583 14.6286C48.4897 14.9596 48.1708 15.1741 47.6275 15.504C47.0842 15.834 46.7784 16.0198 46.2395 16.2772C45.7006 16.5345 45.4246 16.6368 44.9319 16.7908C44.4403 16.9437 44.1708 17.0042 43.7771 17.0449C43.3834 17.0855 43.2338 17.0625 42.9621 16.9932C42.6905 16.9239 42.6047 16.8447 42.4177 16.7006C42.2308 16.5554 42.1967 16.4466 42.0284 16.2706C41.8601 16.0935 41.7853 15.9462 41.5753 15.8208C41.3663 15.6943 41.2387 15.614 40.9792 15.6393C40.7185 15.6635 40.5701 15.7185 40.2753 15.9429C39.9806 16.1683 39.8266 16.3751 39.5066 16.7633C39.1876 17.1515 38.9896 17.4166 38.6795 17.884C38.3705 18.3514 38.2033 18.6517 37.9569 19.1026C37.7117 19.5546 37.5632 19.7834 37.4521 20.1408C37.3421 20.4982 37.3289 20.683 37.407 20.8909C37.4851 21.0987 37.6105 21.2087 37.8425 21.1801C38.0746 21.1504 38.2341 21.0195 38.5684 20.7435C38.9017 20.4674 39.0919 20.231 39.512 19.7999C39.9311 19.3698 40.2247 19.0883 40.6646 18.5912C41.1035 18.0941 41.3806 17.7894 41.7106 17.3154C42.0394 16.8403 42.2055 16.5884 42.311 16.2189C42.4177 15.8505 42.4001 15.6437 42.2418 15.4688C42.0823 15.2929 41.9195 15.2544 41.5159 15.3424C41.1112 15.4314 40.8131 15.6085 40.2203 15.9088C39.6286 16.209 39.2844 16.4444 38.5541 16.8458C37.8239 17.2472 37.3751 17.4969 36.569 17.9148C35.7628 18.3327 35.3009 18.5791 34.5244 18.9343C33.7469 19.2896 33.3334 19.4545 32.6856 19.6899C32.0378 19.9263 31.7287 20.0242 31.2844 20.1133C30.8412 20.2024 30.6641 20.1859 30.4673 20.1353C30.2704 20.0847 30.2792 20.0594 30.3001 19.8593C30.321 19.6591 30.3991 19.4952 30.574 19.1356C30.7488 18.7748 30.9039 18.49 31.1744 18.0578C31.445 17.6256 31.6903 17.3594 31.9267 16.9745C32.1632 16.5895 32.3116 16.3839 32.3589 16.1309C32.4062 15.8791 32.3479 15.7229 32.1643 15.7108C31.9795 15.6987 31.8321 15.8021 31.4384 16.0704C31.0447 16.3399 30.7565 16.6137 30.1956 17.057C29.6347 17.4991 29.2817 17.8015 28.6339 18.2843C27.985 18.766 27.5957 19.0465 26.9523 19.4688C26.3089 19.8922 25.9515 20.1034 25.4181 20.3971C24.8847 20.6896 24.6328 20.804 24.2842 20.9338C23.9344 21.0646 23.8256 21.091 23.6727 21.0503C23.5187 21.0107 23.5066 20.9514 23.5165 20.7325C23.5275 20.5136 23.5726 20.3509 23.7233 19.956C23.874 19.5612 24.0334 19.2643 24.271 18.7572C24.5074 18.2491 24.6867 17.9302 24.9078 17.4166C25.1288 16.9041 25.285 16.6214 25.3785 16.1925C25.472 15.7625 25.4951 15.5414 25.3741 15.2687C25.2531 14.9948 25.1123 14.8562 24.7747 14.8255C24.4371 14.7947 24.1896 14.8892 23.6881 15.1158C23.1866 15.3424 22.8775 15.5513 22.2649 15.9583C21.6535 16.3663 21.2894 16.6434 20.6284 17.1526C19.9675 17.6607 19.5825 17.9808 18.96 18.5032C18.3386 19.0267 18.0087 19.3434 17.5193 19.7669C17.0288 20.1892 16.7901 20.3597 16.513 20.6181C16.2347 20.8777 16.1654 20.9909 16.1324 21.0613C16.0995 21.1317 16.2127 21.1636 16.3491 20.9701C16.4844 20.7754 16.568 20.5279 16.8121 20.0913C17.0552 19.6536 17.2388 19.3247 17.5644 18.7847C17.8899 18.2447 18.1297 17.9324 18.4387 17.3913C18.7478 16.8491 18.938 16.5225 19.1096 16.0781C19.2812 15.6338 19.3582 15.4204 19.2966 15.1675C19.235 14.9145 19.1173 14.8024 18.7995 14.8134C18.4827 14.8244 18.2441 14.9739 17.7096 15.2225C17.1762 15.471 16.833 15.6965 16.1302 16.0561C15.4264 16.4169 15.0084 16.6357 14.1935 17.0251C13.3785 17.4155 12.9188 17.6376 12.0533 18.0061C11.1888 18.3745 10.7181 18.5725 9.86687 18.8672C9.01562 19.162 8.5757 19.3082 7.79704 19.4798C7.01838 19.6514 6.60376 19.6932 5.97247 19.724C5.34228 19.7548 5.03544 19.7273 4.64171 19.636C4.24798 19.5436 4.1501 19.4666 4.00492 19.2643C3.85975 19.0619 3.82346 18.9508 3.91584 18.6242C4.00822 18.2975 4.1303 18.0468 4.46794 17.6311C4.80558 17.2164 5.07393 16.9316 5.60074 16.5488C6.12864 16.1661 6.47288 15.9561 7.10637 15.7185C7.73985 15.482 8.11049 15.3941 8.76817 15.3644C9.42695 15.3347 9.80968 15.3798 10.3992 15.5722C10.9887 15.7658 11.2801 15.9297 11.7156 16.3311C12.1512 16.7336 12.3216 16.9932 12.5768 17.5816C12.8308 18.1689 12.9177 18.5956 12.9881 19.2698C13.0596 19.945 13.0189 20.3454 12.932 20.9547C12.844 21.5628 12.7121 21.8972 12.5504 22.3129C12.3887 22.7286 12.2842 22.8925 12.1226 23.0344C11.9598 23.1763 11.9081 23.173 11.7387 23.0245C11.5705 22.8749 11.4517 22.7253 11.2768 22.2887C11.1019 21.8521 10.9909 21.565 10.8644 20.8392C10.739 20.1133 10.6763 19.6228 10.6499 18.6594C10.6235 17.6959 10.6356 17.1548 10.7324 16.0231C10.8292 14.8914 10.9315 14.2558 11.1338 12.9998C11.3362 11.7438 11.4583 11.0201 11.7442 9.74217C12.0313 8.46419 12.2325 7.78342 12.5647 6.61213C12.8979 5.44084 13.0992 4.84695 13.4082 3.88462C13.7173 2.92229 13.9031 2.45487 14.1088 1.79939C14.3134 1.14391 14.4399 0.890956 14.4344 0.608307C14.4278 0.326757 14.2859 0.269567 14.0791 0.388346C13.8734 0.507125 13.7657 0.69739 13.4038 1.2022C13.042 1.70591 12.822 2.07324 12.271 2.91019C11.7211 3.74824 11.3604 4.29154 10.6499 5.38805C9.93946 6.48565 9.51273 7.13013 8.71868 8.39491C7.92352 9.65968 7.4836 10.3669 6.67524 11.7119C5.86799 13.0559 5.42697 13.7894 4.6802 15.118C3.93454 16.4466 3.5672 17.1691 2.94691 18.3536C2.32662 19.5392 2.04177 20.1364 1.57986 21.0426C1.11794 21.9489 0.878185 22.3679 0.639528 22.8859C0.399771 23.4028 0.375573 23.5832 0.383272 23.6283C0.390971 23.6745 0.480057 23.5535 0.678022 23.1136C0.875986 22.6736 0.991464 22.2942 1.3742 21.4309C1.75693 20.5675 2.01648 19.9604 2.59168 18.7957C3.16687 17.6311 3.5529 16.8997 4.25128 15.6052C4.94855 14.3107 5.38957 13.5783 6.08245 12.3223C6.77423 11.0663 7.14486 10.4053 7.71236 9.32424C8.27986 8.24424 8.53831 7.69983 8.91884 6.91787C9.29937 6.13481 9.43575 5.85986 9.61501 5.41334C9.79428 4.96792 9.81738 4.84694 9.81408 4.68637C9.81078 4.5258 9.7008 4.49061 9.59852 4.61049Z" fill="var(--fill-0, black)" fill-opacity="1" stroke="var(--stroke-0, black)" stroke-opacity="1" stroke-width="0.10998"/>
</g>
<defs>
<clipPath id="clip0_0_12">
<rect width="86.407" height="24" fill="white"/>
</clipPath>
</defs>
</svg>
