<svg preserveAspectRatio="none" width="100%" height="100%" overflow="visible" style="display: block;" viewBox="0 0 26 26" fill="none" xmlns="http://www.w3.org/2000/svg">
<g id="layout-right">
<path id="Vector" d="M23.8321 14.3217L22.4371 11.6855C20.4282 12.7489 18.7961 13.3955 17.5583 13.6177C19.0007 12.6316 20.3109 10.934 21.5038 8.50997L18.8286 7.18935C18.015 8.83951 17.2537 9.898 16.565 10.572C16.9568 8.76211 16.4577 6.21074 14.3165 2.1665L11.6811 3.56202C12.7443 5.57166 13.3906 7.20434 13.6127 8.44008C12.627 6.99714 10.93 5.689 8.50925 4.49319L7.18909 7.16939C8.83867 7.98323 9.89679 8.74465 10.5706 9.43366C8.7613 9.04172 6.21081 9.54101 2.16797 11.6805L3.563 14.3167C5.56945 13.2532 7.19907 12.6092 8.43688 12.3845C6.99193 13.383 5.68425 15.0782 4.49635 17.4897L7.17162 18.8104C7.98018 17.1677 8.74384 16.1067 9.43511 15.4276C9.04331 17.2376 9.54242 19.789 11.6836 23.8332L14.319 22.4376C13.2558 20.4305 12.612 18.8004 12.3874 17.5621C13.3856 19.0075 15.0801 20.3157 17.4909 21.504L18.811 18.8278C17.1689 18.0189 16.1083 17.2576 15.4295 16.566C15.7963 16.6459 16.1906 16.6883 16.6249 16.6883C18.3319 16.6883 20.6104 16.0243 23.8346 14.3167L23.8321 14.3217Z" fill="var(--fill-0, #999898)"/>
</g>
</svg>
