<svg preserveAspectRatio="none" width="100%" height="100%" overflow="visible" style="display: block;" viewBox="0 0 14.0828 22" fill="none" xmlns="http://www.w3.org/2000/svg">
<g id="Frame 3">
<path id="Subtract" d="M11.1863 13.2918C11.2464 13.3033 11.2864 13.3616 11.2753 13.4218L10.5302 17.4537C10.277 18.6629 8.9805 21.1676 5.83055 21.0502C2.0306 20.9082 1.20694 17.198 1.36843 15.8911C1.49333 14.8806 1.94793 12.7233 2.18131 11.6715C2.19434 11.6128 2.25234 11.5753 2.31142 11.5865L11.1863 13.2918ZM5.62106 1.6918C6.60855 0.892299 9.16925 0.459664 11.0577 1.92898C12.9462 3.39876 12.9991 5.38491 12.8467 6.40794C12.6941 7.43089 11.9277 10.2279 11.9685 10.6665C11.9992 10.9961 11.6204 11.2389 11.3925 11.3354C11.3654 11.3467 11.3351 11.3494 11.306 11.3453C11.1333 11.321 10.8144 11.3019 10.6282 11.3839C10.4548 11.4606 10.2805 11.8486 10.1848 12.1158C10.1583 12.1897 10.0856 12.2389 10.0074 12.2319C7.0163 11.9637 4.65636 11.3096 3.80384 10.9998C3.78041 10.9914 3.75419 10.9924 3.73201 10.9811C3.56082 10.8925 3.98529 9.9288 3.47548 9.91754C3.07773 9.90887 2.77353 9.57345 2.6442 9.36685C2.62396 9.33446 2.61732 9.29646 2.62423 9.25891C2.85107 8.03653 3.34136 5.45896 3.57045 4.4758C3.8613 3.22775 4.63378 2.49149 5.62106 1.6918ZM7.38793 9.46661C7.34612 9.4262 7.28242 9.42614 7.23358 9.45771C7.06899 9.56415 6.83486 9.76362 6.72703 10.0135C6.69027 10.0994 6.75409 10.1879 6.84659 10.2018L7.47296 10.2936C7.57669 10.3089 7.66873 10.2257 7.65332 10.1221C7.61941 9.89772 7.54049 9.61424 7.38793 9.46661ZM7.30757 8.2065C7.38159 7.76604 7.16282 6.37142 5.69539 6.28658C4.54009 6.21999 4.02961 7.16939 3.91167 7.67581C3.9079 7.6922 3.90728 7.70958 3.90892 7.72631C4.01797 8.83806 4.36992 8.69566 5.41516 9.08107C6.46887 9.46966 7.23354 8.64695 7.30757 8.2065ZM11.3325 8.97702C11.4338 8.54204 11.1883 7.14076 9.7205 7.05615C8.56552 6.98963 8.05581 7.93911 7.93772 8.4456C7.93388 8.46211 7.9331 8.48019 7.93476 8.49705C8.04385 9.60859 8.39558 9.46628 9.441 9.85181C10.4946 10.2404 11.131 9.84142 11.3325 8.97702ZM9.8444 2.9618C8.57565 2.40387 8.34651 2.43278 8.39078 2.52578C8.39512 2.53484 8.40305 2.54162 8.41218 2.54581C9.19368 2.90401 10.6611 4.01259 10.4426 5.65717C10.4392 5.68365 10.4544 5.70912 10.4796 5.71793L11.3957 6.0337C11.4315 6.04602 11.4694 6.01948 11.469 5.98159C11.4607 5.1629 11.1313 3.52771 9.8444 2.9618Z" fill="var(--fill-0, #999898)"/>
</g>
</svg>
