<svg preserveAspectRatio="none" width="100%" height="100%" overflow="visible" style="display: block;" viewBox="0 0 21.3416 21.9999" fill="none" xmlns="http://www.w3.org/2000/svg">
<g id="Group">
<path id="Vector" d="M20.0908 10.9932H17.7766C17.0855 10.9932 16.5254 11.5705 16.5254 12.2829V15.7452C16.5254 16.4577 15.9654 17.035 15.2742 17.035H6.06762C5.37645 17.035 4.81641 17.6123 4.81641 18.3247V20.7101C4.81641 21.4226 5.37645 21.9999 6.06762 21.9999H15.8071C16.4983 21.9999 17.0504 21.4226 17.0504 20.7101V18.7963C17.0504 18.0838 17.6104 17.5785 18.3016 17.5785H20.0904C20.7815 17.5785 21.3416 17.0012 21.3416 16.2887V12.2679C21.3416 11.5555 20.7815 10.9932 20.0904 10.9932H20.0908Z" fill="var(--fill-0, #999898)"/>
<path id="Vector_2" d="M4.8166 6.25467C4.8166 5.54222 5.37665 4.96493 6.06781 4.96493H15.2688C15.96 4.96493 16.52 4.38763 16.52 3.67518V1.28974C16.52 0.577295 15.96 0 15.2688 0H5.53445C4.84329 0 4.28324 0.577295 4.28324 1.28974V3.12782C4.28324 3.84026 3.72319 4.41756 3.03203 4.41756H1.25121C0.560048 4.41756 0 4.99485 0 5.7073V9.73243C0 10.4449 0.562389 10.9932 1.25355 10.9932H3.56773C4.25889 10.9932 4.81894 10.4159 4.81894 9.70347L4.8166 6.25515V6.25467Z" fill="var(--fill-0, #999898)"/>
<path id="Vector_3" d="M9.58162 8.48633H11.8045C12.5289 8.48633 13.1166 9.09258 13.1166 9.83882V12.1301C13.1166 12.8769 12.5284 13.4826 11.8045 13.4826H9.58162C8.85721 13.4826 8.26953 12.8764 8.26953 12.1301V9.83882C8.26953 9.0921 8.85767 8.48633 9.58162 8.48633V8.48633Z" fill="var(--fill-0, #999898)"/>
</g>
</svg>
