<svg preserveAspectRatio="none" width="100%" height="100%" overflow="visible" style="display: block;" viewBox="0 0 48.0116 17.3613" fill="none" xmlns="http://www.w3.org/2000/svg">
<g id="Group">
<path id="Vector" d="M10.5059 8.02034C9.74217 7.70418 8.80938 7.44063 7.70755 7.22922H7.68413C6.61367 7.03469 5.81059 6.8561 5.27537 6.69343C4.74014 6.53173 4.31916 6.31259 4.01198 6.03649C3.7048 5.76088 3.55167 5.37955 3.55167 4.89252C3.55167 4.17863 3.81156 3.63512 4.33087 3.262C4.85065 2.88889 5.53525 2.70209 6.38516 2.70209C7.3142 2.70209 8.0653 2.94536 8.64033 3.43239C9.15636 3.86971 9.47244 4.42528 9.58858 5.09815C9.61152 5.23233 9.72156 5.33129 9.85362 5.33273L12.4665 5.35301C12.6267 5.35445 12.755 5.21254 12.7391 5.04795C12.6515 4.14774 12.3635 3.3291 11.8756 2.59252C11.3324 1.7734 10.5846 1.13625 9.63212 0.681556C8.67967 0.227346 7.5975 0 6.38516 0C5.23603 0 4.20116 0.219141 3.28008 0.657421C2.35946 1.0957 1.64301 1.70389 1.1312 2.48295C0.619382 3.262 0.363708 4.13808 0.363708 5.11166C0.363708 6.18275 0.591754 7.0429 1.04831 7.69163C1.50488 8.34084 2.10285 8.83174 2.84272 9.16431C3.58258 9.49688 4.47182 9.76043 5.5109 9.95543L5.62891 9.97957C6.73027 10.1905 7.55349 10.3773 8.09668 10.5395C8.63987 10.7022 9.06833 10.929 9.38347 11.221C9.69815 11.5131 9.85549 11.9108 9.85549 12.4138C9.85549 13.1281 9.57219 13.6876 9.00558 14.093C8.43898 14.499 7.70661 14.7017 6.80941 14.7017C5.73848 14.7017 4.87312 14.4217 4.21193 13.8618C3.61021 13.3526 3.2562 12.6985 3.1499 11.9002C3.13164 11.7621 3.02019 11.6574 2.88533 11.6555L0.275673 11.6149C0.116931 11.6125 -0.0113744 11.7506 0.000800563 11.9137C0.0747868 12.8955 0.372606 13.7803 0.894256 14.568C1.46882 15.4364 2.25972 16.1179 3.26743 16.6127C4.27468 17.1079 5.43177 17.355 6.7387 17.355C7.95058 17.355 9.03696 17.1282 9.99737 16.6735C10.9573 16.2193 11.7094 15.5903 12.2525 14.7871C12.7957 13.9839 13.0673 13.0794 13.0673 12.073C13.0673 11.0019 12.8309 10.1379 12.3588 9.48047C11.8868 8.82353 11.2687 8.3365 10.5054 8.01986L10.5059 8.02034Z" fill="var(--fill-0, #999898)"/>
<path id="Vector_2" d="M26.5518 14.5805H26.144C25.908 14.5805 25.7225 14.5158 25.5891 14.3855C25.4551 14.2561 25.3882 14.0447 25.3882 13.7527V9.10345C25.3882 7.62691 24.9316 6.50321 24.019 5.73236C23.1058 4.96199 22.0307 4.56908 20.3463 4.56908C18.7561 4.56908 17.5138 4.9253 16.5379 5.62279C15.6482 6.25897 15.112 7.13022 14.9285 8.23799C14.8999 8.41031 15.0264 8.56815 15.1954 8.56815H17.5953C17.7156 8.56815 17.8233 8.48657 17.8552 8.36687C17.9647 7.95706 18.2064 7.62256 18.58 7.36336C19.0127 7.06313 19.5269 6.91301 20.204 6.91301C21.4809 6.91301 22.3889 7.72441 22.3889 8.93306V9.311C22.3889 9.46546 22.2676 9.59048 22.1178 9.59048H19.9441C18.1811 9.59048 16.8428 9.94767 15.9301 10.6616C15.017 11.3759 14.5604 12.3901 14.5604 13.7039C14.5604 14.8402 14.9777 15.7327 15.8121 16.3814C16.4382 16.868 17.1865 17.1489 17.9568 17.272C18.5454 17.3661 19.1499 17.4004 19.7399 17.3029C20.358 17.201 20.86 16.9384 21.3625 16.5639C21.8139 16.2279 22.1904 15.7974 22.5341 15.2722C22.7017 14.9753 23.1414 15.0946 23.1414 15.4378V15.8505C23.141 16.6006 23.7305 17.2087 24.4582 17.2087H26.5518C26.7017 17.2087 26.8229 17.0837 26.8229 16.9293V14.8595C26.8229 14.705 26.7017 14.58 26.5518 14.58V14.5805ZM22.3894 12.0734C22.3894 12.6739 22.2672 13.1971 22.0232 13.6431C21.5119 14.5786 20.5969 15.0671 19.5671 15.0671C18.9687 15.0671 18.4887 14.9213 18.1267 14.6293C17.7643 14.3372 17.5836 13.9477 17.5836 13.4607C17.5836 12.9094 17.7844 12.4832 18.1858 12.183C18.5871 11.8832 19.1574 11.7326 19.8977 11.7326H22.1183C22.2681 11.7326 22.3894 11.8577 22.3894 12.0121V12.0734V12.0734Z" fill="var(--fill-0, #999898)"/>
<path id="Vector_3" d="M35.3003 0.177734H32.1774C30.5301 0.177734 29.1946 1.55436 29.1946 3.25246V4.6035C29.1946 4.75796 29.0733 4.88297 28.9234 4.88297H27.1403C26.9904 4.88297 26.8691 5.00799 26.8691 5.16245V7.25635C26.8691 7.41081 26.9904 7.53583 27.1403 7.53583H28.9234C29.0733 7.53583 29.1946 7.66084 29.1946 7.8153V16.9294C29.1946 17.0839 29.3158 17.2089 29.4657 17.2089H31.8988C32.0486 17.2089 32.1699 17.0839 32.1699 16.9294V7.8153C32.1699 7.66084 32.2912 7.53583 32.4411 7.53583H35.2764C35.4263 7.53583 35.5475 7.41081 35.5475 7.25635V5.16245C35.5475 5.00799 35.4263 4.88297 35.2764 4.88297H32.4411C32.2912 4.88297 32.1699 4.75796 32.1699 4.6035V3.38954C32.1699 3.08062 32.413 2.83059 32.7122 2.83059H35.2998C35.4497 2.83059 35.571 2.70557 35.571 2.55111V0.457211C35.571 0.302751 35.4497 0.177734 35.2998 0.177734H35.3003Z" fill="var(--fill-0, #999898)"/>
<path id="Vector_4" d="M47.221 7.39995C46.6937 6.49154 45.9731 5.79357 45.0604 5.30654C44.1473 4.81999 43.0923 4.56947 41.8963 4.56947C40.7004 4.56947 39.6683 4.84026 38.7557 5.36736C37.8426 5.89494 37.1341 6.64117 36.6307 7.60654C36.1268 8.5724 35.8749 9.70382 35.8749 11.0023C35.8749 12.3007 36.1348 13.3838 36.6541 14.3492C37.1739 15.3146 37.9175 16.057 38.8854 16.5763C39.8533 17.0957 40.9907 17.3554 42.2977 17.3554C43.3049 17.3554 44.2063 17.1647 45.0014 16.7834C45.7961 16.4026 46.4376 15.8788 46.9255 15.2137C47.3432 14.6441 47.6284 14.0205 47.7811 13.3433C47.8209 13.1676 47.6921 12.9987 47.517 12.9987H45.0726C44.9555 12.9987 44.853 13.0768 44.8155 13.1912C44.6432 13.7159 44.3393 14.1306 43.9033 14.4346C43.4149 14.7754 42.809 14.9458 42.0851 14.9458C41.4866 14.9458 40.9636 14.816 40.515 14.5563C40.0664 14.2971 39.7123 13.9317 39.4525 13.4611C39.3499 13.2752 39.2661 13.0788 39.1991 12.8765C39.1275 12.6593 39.076 12.4354 39.0404 12.2085C39.0282 12.1293 39.017 12.0492 39.0076 11.9691C38.9893 11.804 39.1162 11.6597 39.2773 11.6597H47.7066C47.8433 11.6597 47.9604 11.5554 47.9759 11.415C47.9876 11.3121 47.9955 11.2074 47.9997 11.0998C48.0077 10.9052 48.0115 10.7266 48.0115 10.5645C48.0115 9.36401 47.7478 8.30934 47.2205 7.40044L47.221 7.39995ZM44.6882 9.54164H39.4089C39.2356 9.54164 39.105 9.37608 39.1434 9.20183C39.2277 8.82002 39.3738 8.47538 39.5817 8.16646C39.8491 7.76921 40.1956 7.46463 40.6208 7.2537C41.046 7.04277 41.51 6.93706 42.0139 6.93706C42.8324 6.93706 43.5095 7.1644 44.0448 7.61861C44.5041 8.00862 44.8066 8.53572 44.9532 9.20038C44.9916 9.37511 44.8619 9.54164 44.6882 9.54164V9.54164Z" fill="var(--fill-0, #999898)"/>
</g>
</svg>
