<svg preserveAspectRatio="none" width="100%" height="100%" overflow="visible" style="display: block;" viewBox="0 0 110 22" fill="none" xmlns="http://www.w3.org/2000/svg">
<g id="Frame" clip-path="url(#clip0_0_13)">
<path id="Vector" fill-rule="evenodd" clip-rule="evenodd" d="M9.16046 0.259764C9.77748 -0.0863256 10.5302 -0.0863256 11.1472 0.259764L19.2703 4.81574C19.3097 4.83784 19.3482 4.86113 19.3857 4.88558L13.0746 8.51877C10.6015 9.66421 8.18623 8.99312 6.99501 8.3698L6.67191 8.18381C6.66433 8.17896 6.65684 8.17414 6.64943 8.16933L6.64854 8.17035L0.931674 4.87929C0.966113 4.85714 1.00136 4.83593 1.03736 4.81574L9.16046 0.259764ZM0.0199284 6.30286L5.30757 9.34681C5.45177 9.43625 5.64896 9.55294 5.90626 9.70042C8.34748 11.1 9.16088 13.5421 9.30769 14.9058V22.0002C9.25785 21.9774 9.20869 21.9524 9.16046 21.9253L1.03736 17.3694C0.396683 17.01 0 16.3327 0 15.5981V6.58695C0 6.49108 0.00675594 6.3962 0.0199284 6.30286ZM11 15.311V22.0002C11.0498 21.9774 11.099 21.9524 11.1472 21.9253L19.2703 17.3694C19.911 17.01 20.3077 16.3327 20.3077 15.5981V6.58695C20.3077 6.49484 20.3014 6.40364 20.2892 6.31385L15.0818 9.3117C14.9342 9.40494 14.7194 9.5328 14.4269 9.70042C11.7192 11.2529 11.0141 14.0877 11 15.311Z" fill="var(--fill-0, #999898)"/>
<path id="Vector_2" d="M31.486 16.7641C30.6154 16.7641 29.8275 16.6098 29.1222 16.3013C28.4169 15.9927 27.8164 15.5684 27.3205 15.0285C26.8246 14.4775 26.4444 13.8273 26.18 13.0779C25.9155 12.3176 25.7832 11.4967 25.7832 10.615C25.7832 9.73344 25.9155 8.918 26.18 8.16865C26.4444 7.40828 26.8246 6.7526 27.3205 6.20161C27.8164 5.65062 28.4169 5.22084 29.1222 4.91229C29.8275 4.60373 30.6154 4.44946 31.486 4.44946C32.3565 4.44946 33.139 4.60373 33.8332 4.91229C34.5384 5.22084 35.139 5.65062 35.635 6.20161C36.1308 6.7526 36.511 7.40828 36.7755 8.16865C37.04 8.918 37.1722 9.73344 37.1722 10.615C37.1722 11.4967 37.04 12.3176 36.7755 13.0779C36.511 13.8273 36.1308 14.4775 35.635 15.0285C35.139 15.5684 34.5384 15.9927 33.8332 16.3013C33.139 16.6098 32.3565 16.7641 31.486 16.7641ZM31.5025 14.7971C32.0425 14.7971 32.5108 14.6924 32.9076 14.483C33.3152 14.2626 33.6514 13.9651 33.9158 13.5904C34.1913 13.2157 34.3952 12.7749 34.5274 12.268C34.6597 11.7501 34.7258 11.1991 34.7258 10.615C34.7258 10.0199 34.6597 9.46902 34.5274 8.96209C34.3952 8.45516 34.1913 8.01437 33.9158 7.63969C33.6514 7.254 33.3152 6.95646 32.9076 6.74709C32.5108 6.52669 32.0425 6.4165 31.5025 6.4165C30.9625 6.4165 30.4887 6.52669 30.081 6.74709C29.6732 6.95646 29.3316 7.254 29.0561 7.63969C28.7806 8.01437 28.5713 8.45516 28.428 8.96209C28.2958 9.46902 28.2296 10.0199 28.2296 10.615C28.2296 11.1991 28.2958 11.7501 28.428 12.268C28.5713 12.7749 28.7806 13.2157 29.0561 13.5904C29.3316 13.9651 29.6732 14.2626 30.081 14.483C30.4887 14.6924 30.9625 14.7971 31.5025 14.7971ZM38.3013 8.01988H40.4667V9.07775H40.5163C40.7918 8.70308 41.1279 8.39455 41.5245 8.15211C41.9323 7.90968 42.4282 7.78846 43.0122 7.78846C43.5743 7.78846 44.0812 7.89866 44.533 8.11905C44.9848 8.33945 45.3705 8.64799 45.6901 9.04475C46.0207 9.43043 46.2686 9.89878 46.4339 10.4497C46.6102 11.0007 46.6983 11.6068 46.6983 12.268C46.6983 12.9513 46.6102 13.5739 46.4339 14.1359C46.2576 14.6868 46.0041 15.1552 45.6735 15.5409C45.354 15.9266 44.9682 16.2241 44.5165 16.4335C44.0646 16.6429 43.5688 16.7475 43.0287 16.7475C42.4337 16.7475 41.9378 16.6374 41.5411 16.417C41.1444 16.1966 40.8248 15.9045 40.5823 15.5409H40.5493V19.2766H38.3013V8.01988ZM42.5494 14.8797C43.1224 14.8797 43.5743 14.6593 43.9049 14.2186C44.2464 13.7667 44.4173 13.1386 44.4173 12.3341C44.4173 11.5297 44.2629 10.874 43.9544 10.3671C43.6569 9.86019 43.161 9.60677 42.4667 9.60677C42.1141 9.60677 41.811 9.67835 41.5576 9.82161C41.3152 9.96486 41.1114 10.1577 40.946 10.4001C40.7918 10.6426 40.676 10.9346 40.5989 11.2762C40.5328 11.6068 40.4998 11.9595 40.4998 12.3341C40.4998 13.1055 40.6705 13.7226 41.0121 14.1855C41.3648 14.6483 41.8772 14.8797 42.5494 14.8797ZM51.7281 16.7475C51.0229 16.7475 50.3948 16.6319 49.8438 16.4005C49.3038 16.169 48.8465 15.8549 48.4718 15.4583C48.0971 15.0505 47.8106 14.5712 47.6123 14.0201C47.4249 13.4692 47.3313 12.8796 47.3313 12.2515C47.3313 11.6233 47.4304 11.0393 47.6288 10.4994C47.8382 9.94836 48.1247 9.47452 48.4884 9.07775C48.8631 8.68108 49.3038 8.367 49.8108 8.13559C50.3287 7.90417 50.8962 7.78846 51.5133 7.78846C52.1965 7.78846 52.7971 7.91519 53.315 8.16865C53.8329 8.41108 54.2682 8.75825 54.6209 9.21001C54.9735 9.66185 55.238 10.2018 55.4143 10.83C55.6017 11.4471 55.6953 12.1358 55.6953 12.8961H49.5462C49.6344 13.5573 49.8548 14.0752 50.2074 14.4499C50.5711 14.8246 51.0725 15.0119 51.7116 15.0119C52.1524 15.0119 52.5051 14.9182 52.7696 14.7309C53.034 14.5436 53.2268 14.2901 53.3481 13.9706H55.5631C55.4859 14.3452 55.3426 14.7034 55.1333 15.045C54.935 15.3756 54.6705 15.6676 54.3399 15.9211C54.0203 16.1745 53.6401 16.3729 53.1993 16.5161C52.7585 16.6705 52.2682 16.7475 51.7281 16.7475ZM51.5464 9.5241C50.9513 9.5241 50.4994 9.68935 50.1909 10.0199C49.8823 10.3395 49.6785 10.7803 49.5793 11.3423H53.3481C53.315 10.8024 53.1332 10.3671 52.8026 10.0365C52.4831 9.69485 52.0643 9.5241 51.5464 9.5241ZM58.9342 9.17692H58.9838C59.2703 8.71416 59.6119 8.367 60.0087 8.13559C60.4164 7.90417 60.9123 7.78846 61.4963 7.78846C61.9372 7.78846 62.3338 7.87111 62.6865 8.03641C63.0501 8.19069 63.3587 8.41108 63.6121 8.69758C63.8656 8.97309 64.064 9.30368 64.2072 9.68935C64.3505 10.075 64.4221 10.4994 64.4221 10.9621V16.4996H62.1741V11.2927C62.1741 10.83 62.0473 10.4553 61.7939 10.1687C61.5404 9.88219 61.1768 9.73894 60.7029 9.73894C60.207 9.73894 59.7938 9.92078 59.4632 10.2845C59.1436 10.637 58.9838 11.1054 58.9838 11.6895V16.4996H56.7358V8.01988H58.9342V9.17692ZM65.9895 4.68088H71.2791C71.9182 4.68088 72.4747 4.75801 72.9486 4.91229C73.4334 5.05555 73.8302 5.26493 74.1387 5.54042C74.7669 6.10243 75.0809 6.84076 75.0809 7.7554C75.0809 8.36149 74.9101 8.86292 74.5685 9.25959C74.2379 9.64527 73.7916 9.93178 73.2296 10.1191V10.1687C73.8908 10.356 74.4197 10.7087 74.8165 11.2266C75.2242 11.7446 75.4281 12.3672 75.4281 13.0945C75.4281 13.6565 75.3399 14.1359 75.1635 14.5326C74.9983 14.9182 74.7393 15.2599 74.3867 15.5574C74.045 15.8549 73.6208 16.0864 73.1139 16.2517C72.607 16.417 72.0395 16.4996 71.4114 16.4996H65.9895V4.68088ZM68.3864 14.5161H71.1469C71.7309 14.5161 72.1827 14.3728 72.5023 14.0863C72.8329 13.7887 72.9982 13.3975 72.9982 12.9127C72.9982 12.3507 72.8163 11.9264 72.4527 11.6399C72.089 11.3534 71.6317 11.2101 71.0807 11.2101H68.3864V14.5161ZM70.9815 9.44143C71.5105 9.44143 71.9348 9.32018 72.2543 9.07775C72.5739 8.83533 72.7337 8.48274 72.7337 8.01988C72.7337 7.57909 72.5794 7.23747 72.2709 6.99503C71.9733 6.7526 71.5601 6.63138 71.0311 6.63138H68.3864V9.44143H70.9815ZM76.6884 4.68088H78.9365V16.4996H76.6884V4.68088ZM84.4332 16.7475C83.7721 16.7475 83.1715 16.6319 82.6315 16.4005C82.0915 16.169 81.6232 15.8549 81.2265 15.4583C80.8408 15.0505 80.5377 14.5767 80.3174 14.0367C80.108 13.4857 80.0033 12.8961 80.0033 12.268C80.0033 11.6399 80.108 11.0558 80.3174 10.5159C80.5377 9.96486 80.8408 9.49102 81.2265 9.09434C81.6232 8.68658 82.0915 8.367 82.6315 8.13559C83.1715 7.90417 83.7721 7.78846 84.4332 7.78846C85.0945 7.78846 85.6953 7.90417 86.2351 8.13559C86.775 8.367 87.2378 8.68658 87.6237 9.09434C88.0205 9.49102 88.3234 9.96486 88.5324 10.5159C88.7533 11.0558 88.8633 11.6399 88.8633 12.268C88.8633 12.8961 88.7533 13.4857 88.5324 14.0367C88.3234 14.5767 88.0205 15.0505 87.6237 15.4583C87.2378 15.8549 86.775 16.169 86.2351 16.4005C85.6953 16.6319 85.0945 16.7475 84.4332 16.7475ZM84.4332 15.0285C85.1275 15.0285 85.6564 14.775 86.0202 14.2681C86.3951 13.7612 86.582 13.0945 86.582 12.268C86.582 11.4416 86.3951 10.7748 86.0202 10.268C85.6564 9.75002 85.1275 9.49102 84.4332 9.49102C83.739 9.49102 83.2045 9.75002 82.8299 10.268C82.4662 10.7748 82.2844 11.4416 82.2844 12.268C82.2844 13.0945 82.4662 13.7612 82.8299 14.2681C83.2045 14.775 83.739 15.0285 84.4332 15.0285ZM93.8421 16.7475C93.1702 16.7475 92.5644 16.6319 92.0237 16.4005C91.4948 16.169 91.043 15.8549 90.669 15.4583C90.2941 15.0505 90.0022 14.5767 89.7924 14.0367C89.5944 13.4857 89.4954 12.8961 89.4954 12.268C89.4954 11.6399 89.5944 11.0558 89.7924 10.5159C89.9912 9.96486 90.2721 9.49102 90.6351 9.09434C91.01 8.68658 91.4567 8.367 91.9746 8.13559C92.4924 7.90417 93.0763 7.78846 93.727 7.78846C94.2778 7.78846 94.7737 7.8656 95.2145 8.01988C95.6554 8.17416 96.0353 8.38904 96.3551 8.66458C96.6851 8.929 96.95 9.25409 97.148 9.63977C97.3578 10.0144 97.5008 10.4332 97.5778 10.8961H95.3795C95.3025 10.5214 95.1257 10.2128 94.8507 9.97036C94.5858 9.71694 94.2448 9.59019 93.826 9.59019C93.1423 9.59019 92.6304 9.83261 92.2885 10.3175C91.9467 10.7914 91.7757 11.4416 91.7757 12.268C91.7757 13.0724 91.9357 13.7226 92.2555 14.2186C92.5864 14.7034 93.0983 14.9458 93.793 14.9458C94.2558 14.9458 94.6357 14.8302 94.9336 14.5987C95.2306 14.3562 95.4184 13.9926 95.4954 13.5077H97.6607C97.6277 13.9596 97.5118 14.3838 97.3138 14.7805C97.126 15.1663 96.867 15.5078 96.5362 15.8054C96.2172 16.0919 95.8254 16.3233 95.3626 16.4996C94.9116 16.665 94.4039 16.7475 93.8421 16.7475ZM101.848 12.6317L100.873 13.64V16.4996H98.6414V4.68088H100.873V11.2266L103.881 8.01988H106.576L103.451 11.2431L106.956 16.4996H104.229L101.848 12.6317Z" fill="var(--fill-0, #999898)"/>
<path id="Vector_3" d="M108.306 15.4547C108.306 15.3493 108.331 15.2533 108.383 15.1668C108.434 15.0803 108.503 15.0114 108.589 14.96C108.676 14.9086 108.772 14.8829 108.878 14.8829C108.969 14.8829 109.055 14.9032 109.133 14.9437C109.211 14.9844 109.276 15.0394 109.326 15.109C109.377 15.1786 109.407 15.257 109.418 15.3442H109.116C109.107 15.2935 109.078 15.2523 109.033 15.2205C108.988 15.1881 108.935 15.1719 108.878 15.1719C108.825 15.1719 108.778 15.1844 108.735 15.2094C108.692 15.2344 108.658 15.2685 108.632 15.3117C108.606 15.3543 108.593 15.4017 108.593 15.4537C108.593 15.5058 108.606 15.5534 108.632 15.5966C108.658 15.6392 108.692 15.6733 108.735 15.699C108.778 15.7247 108.825 15.7375 108.878 15.7375C108.935 15.7375 108.986 15.7216 109.028 15.6899C109.071 15.6575 109.098 15.6158 109.109 15.5652H109.41C109.4 15.6524 109.37 15.7308 109.32 15.8004C109.271 15.87 109.208 15.925 109.131 15.9656C109.054 16.0062 108.969 16.0265 108.878 16.0265C108.772 16.0265 108.676 16.0008 108.589 15.9494C108.503 15.898 108.434 15.8291 108.383 15.7426C108.331 15.6561 108.306 15.5601 108.306 15.4547ZM108.869 16.5252C108.722 16.5252 108.583 16.4975 108.454 16.4421C108.324 16.3867 108.211 16.3099 108.112 16.212C108.014 16.1133 107.937 15.9994 107.881 15.8704C107.826 15.7412 107.798 15.6027 107.799 15.4547C107.8 15.3067 107.828 15.1681 107.883 15.039C107.939 14.91 108.016 14.7964 108.114 14.6984C108.212 14.5998 108.326 14.5227 108.455 14.4673C108.584 14.4119 108.722 14.3842 108.869 14.3842C109.017 14.3842 109.156 14.4119 109.285 14.4673C109.415 14.5227 109.528 14.5998 109.626 14.6984C109.724 14.7964 109.8 14.91 109.856 15.039C109.911 15.1681 109.94 15.3067 109.94 15.4547C109.94 15.6027 109.913 15.7412 109.858 15.8704C109.803 15.9994 109.726 16.1133 109.627 16.212C109.529 16.3099 109.416 16.3867 109.286 16.4421C109.156 16.4975 109.017 16.5252 108.869 16.5252ZM108.869 16.1876C108.972 16.1876 109.066 16.1687 109.155 16.1309C109.244 16.093 109.323 16.0406 109.39 15.9738C109.456 15.9062 109.509 15.8284 109.546 15.7406C109.584 15.6521 109.603 15.5571 109.602 15.4557C109.602 15.3536 109.583 15.2583 109.544 15.1698C109.506 15.0807 109.454 15.0026 109.387 14.9356C109.32 14.8688 109.242 14.8164 109.154 14.7785C109.066 14.7407 108.971 14.7218 108.869 14.7218C108.769 14.7218 108.674 14.7407 108.586 14.7785C108.498 14.8164 108.42 14.8691 108.352 14.9366C108.285 15.0036 108.233 15.0817 108.194 15.1709C108.156 15.2594 108.136 15.3543 108.136 15.4557C108.136 15.5564 108.154 15.651 108.192 15.7396C108.23 15.8274 108.284 15.9051 108.351 15.9728C108.418 16.0396 108.496 16.0923 108.585 16.1309C108.673 16.1687 108.768 16.1876 108.869 16.1876Z" fill="var(--fill-0, #999898)"/>
</g>
<defs>
<clipPath id="clip0_0_13">
<rect width="110" height="22" fill="white"/>
</clipPath>
</defs>
</svg>
