<svg preserveAspectRatio="none" width="100%" height="100%" overflow="visible" style="display: block;" viewBox="0 0 85.25 22" fill="none" xmlns="http://www.w3.org/2000/svg">
<g id="Frame 427321719 1">
<path id="Vector" fill-rule="evenodd" clip-rule="evenodd" d="M9.29209 1.11774C7.55523 1.33894 5.47241 2.0368 4.06867 2.86793C3.94342 2.94207 3.9695 3.13148 4.11006 3.16857L4.14344 3.17738C4.37077 3.23748 4.82219 3.24265 5.14676 3.18895C5.72946 3.09249 5.7381 3.09706 5.85025 3.54997C5.98823 4.10725 5.84766 4.11607 7.19771 3.46645C8.50669 2.83674 9.14784 2.73664 9.33055 3.13373C9.59915 3.71732 9.3768 3.92301 7.64318 4.69451C6.94434 5.00548 6.3517 5.30732 6.32631 5.36528C6.2536 5.53081 6.84969 8.26778 6.9586 8.26808C7.01219 8.26822 7.65301 7.92638 8.38266 7.50845C11.3328 5.81865 15.5839 4.06815 18.2014 3.46554C18.8526 3.31553 19.3388 3.17236 19.2819 3.14726C19.225 3.12216 17.7584 2.65494 16.0229 2.10891C12.5719 1.02311 11.3955 0.849825 9.29209 1.11774ZM23.9325 3.35189C17.6306 4.12414 9.23353 7.7041 1.32363 12.9911C0.496922 13.5436 6.04005e-05 14.4758 6.04005e-05 15.4744V15.6362C6.04005e-05 16.6044 0.0416584 17.3966 0.0925484 17.3966C0.143438 17.3966 0.641858 17.0615 1.20002 16.6518C2.98982 15.3381 4.68411 14.697 6.75298 14.5502C8.27213 14.4424 9.40403 14.6536 11.8312 15.4973C16.3191 17.0577 19.2007 17.3095 21.9461 16.3813C22.3982 16.2284 22.7575 15.8782 22.9238 15.4286L24.2691 11.7914C25.1536 9.39998 26.2238 6.49932 26.6472 5.3455L26.8885 4.68839C27.1428 3.99509 26.6254 3.26108 25.8909 3.27339C25.0515 3.28753 24.1701 3.32283 23.9325 3.35189ZM15.0694 8.56764C15.6739 9.50816 14.7106 10.8646 14.0426 10.0134C13.7818 9.68128 13.7646 8.92669 14.0088 8.54664C14.2483 8.17421 14.8238 8.18562 15.0694 8.56764ZM12.8812 9.87799C13.0388 10.3648 12.8067 11.133 12.4657 11.2535C11.8118 11.4848 11.3089 10.8085 11.5166 9.97709C11.7277 9.13162 12.6187 9.06695 12.8812 9.87799ZM10.4314 10.6197C11.1367 11.6125 10.1611 13.0071 9.43406 12.0454C9.29663 11.8634 9.18404 11.5521 9.18404 11.3537C9.18404 10.9078 9.63579 10.2461 9.94035 10.2461C10.0646 10.2461 10.2856 10.4143 10.4314 10.6197ZM5.99255 15.4359C4.69772 15.6278 3.14346 16.2335 2.02302 16.9827C1.09458 17.6036 -0.320082 18.7793 0.16213 18.5293C3.7266 16.6809 7.08112 16.4651 10.7425 17.8488C11.4007 18.0975 12.3039 18.4418 12.7496 18.6139C17.0646 20.2794 21.7382 19.3475 24.7158 16.2279C25.3593 15.5537 25.5836 15.144 25.0493 15.6189C24.5661 16.0484 22.7987 16.9536 21.8021 17.2823C20.9382 17.5671 20.4771 17.6131 18.4761 17.6153C15.8228 17.6182 14.9372 17.4426 11.6045 16.2532C9.91267 15.6495 7.79693 15.2043 7.0231 15.2894C6.93396 15.2991 6.47023 15.365 5.99255 15.4359ZM4.42998 18.1724C3.13677 18.3381 1.82303 18.9112 0.79885 19.7563C0.203944 20.2473 0.19649 20.3371 0.774864 20.05C3.00236 18.9433 5.62616 18.9713 8.48174 20.1319C11 21.1557 13.0812 21.2639 15.0726 20.4749L15.2577 20.4015C15.3971 20.3462 15.3811 20.1426 15.2347 20.1102C14.9673 20.051 14.0435 19.9273 13.1818 19.8353C11.1785 19.6214 10.601 19.4924 8.42772 18.7735C6.49519 18.1344 5.68138 18.012 4.42998 18.1724ZM8.48174 18.1599C8.95303 18.3831 11.4704 19.0964 11.5234 19.0216C11.5956 18.92 9.40392 18.1843 8.75185 18.0912C8.261 18.021 8.214 18.0331 8.48174 18.1599Z" fill="var(--fill-0, #999898)"/>
<path id="Vector_2" d="M37.4486 17.4249C41.2829 17.4249 43.3551 15.3988 43.3551 12.1648V11.9895H40.2567V12.0869C40.2567 13.9571 39.482 14.6 37.4293 14.6C35.2409 14.6 34.3308 13.8013 34.3308 10.7037C34.3308 7.60613 35.2409 6.80738 37.4293 6.80738C39.482 6.80738 40.2567 7.45027 40.2567 9.32052V9.41793H43.3551V9.24259C43.3551 6.00863 41.2829 3.98254 37.4486 3.98254C33.5562 3.98254 31.2323 6.63205 31.2323 10.7037C31.2323 14.7754 33.5562 17.4249 37.4486 17.4249ZM46.888 17.2301V11.0933C46.888 10.0219 47.314 9.71015 48.2048 9.71015C49.115 9.71015 49.4442 10.0413 49.4442 11.0933V11.6194H52.3297V10.7232C52.3297 8.75555 51.5745 7.23598 49.5411 7.23598C48.1661 7.23598 47.2947 8.01525 46.8106 9.00881H46.6943V7.4308H44.0025V17.2301H46.888ZM56.1313 17.4249C57.8354 17.4249 58.8618 16.6456 59.404 15.5157H59.5009V17.2301H62.1927V7.4308H59.3072V12.9831C59.3072 14.4637 58.7069 14.9118 57.3126 14.9118C55.8601 14.9118 55.3954 14.4247 55.3954 13.061V7.4308H52.5099V13.6454C52.5099 15.73 53.575 17.4249 56.1313 17.4249ZM65.8309 6.32034V4.17736H62.9454L62.9841 6.32034H65.8309ZM65.8889 17.2301V7.4308H62.9841V17.2301H65.8889ZM75.5683 17.2301V14.678H71.211L70.0104 14.6975L69.991 14.5027L71.211 13.4896L75.2778 9.88549V7.4308H66.3502V9.98293H69.9522L71.3272 9.9439L71.3466 10.1582L69.9522 11.3272L66.0597 14.9897V17.2301H75.5683ZM79.9781 17.4249C82.7668 17.4249 84.5484 16.1975 84.5484 14.113V13.9182H81.6824V14.0351C81.6824 14.639 81.1788 14.8922 80.0169 14.8922C78.4289 14.8922 77.8866 14.3468 77.8286 12.9831H84.5097C84.5678 12.6518 84.6453 12.0869 84.6453 11.5414C84.6453 8.98933 82.9217 7.23598 79.9975 7.23598C76.9571 7.23598 75.0981 9.22311 75.0981 12.3596C75.0981 15.4572 76.6279 17.4249 79.9781 17.4249ZM79.9007 9.63223C81.2563 9.63223 81.9147 10.1972 81.8566 11.2103H77.8479C77.9642 10.1777 78.5063 9.63223 79.9007 9.63223Z" fill="var(--fill-0, #999898)"/>
</g>
</svg>
